<svg width="71" height="69" viewBox="0 0 71 69" fill="none" xmlns="http://www.w3.org/2000/svg">
<g clip-path="url(#clip0_7_444)">
<path d="M25.3115 31.4122C28.4947 31.4122 30.3644 29.5837 31.7725 26.9934C33.16 24.4375 33.7457 21.0392 33.3819 17.6669C32.7044 11.3591 28.9947 7.1185 24.1548 7.1185C24.1341 7.1185 24.1104 7.1185 24.0897 7.1185C23.9241 6.532 23.8235 5.93112 23.7939 5.33025C23.7318 4.01063 23.9122 2.69675 24.1667 1.56113C24.4329 0.370875 22.9804 -0.474374 22.0278 0.319126C19.9303 2.06425 17.6317 4.784 17.8772 8.20525C17.9157 8.74575 17.9956 9.30638 18.1435 9.88138C17.8861 10.1775 17.6465 10.4966 17.4246 10.8359C15.978 13.0554 15.3804 16.1172 15.7413 19.4551C16.4602 26.1596 20.6669 31.4094 25.3145 31.4094L25.3115 31.4122ZM46.3423 31.3749C50.9899 31.3749 55.1966 26.1222 55.9155 19.4206C56.2734 16.0856 55.6759 13.0266 54.2322 10.8014C53.9216 10.327 53.5784 9.89288 53.1997 9.50188C53.2914 9.05913 53.3447 8.62788 53.3772 8.20813C53.6228 4.784 51.3242 2.06425 49.2267 0.322001C48.2741 -0.471499 46.8216 0.373751 47.0878 1.564C47.3422 2.69963 47.5227 4.0135 47.4606 5.33313C47.4339 5.9225 47.3363 6.51188 47.1736 7.08688C42.5231 7.26513 38.9347 11.4655 38.272 17.6295C37.9081 21.0047 38.4968 24.403 39.8813 26.956C41.2865 29.5464 43.2864 31.3749 46.3423 31.3749ZM14.7976 41.9549C16.0549 39.6347 16.5874 36.5441 16.259 33.4765C15.6407 27.7409 11.86 23.8999 7.45799 23.8999C7.42249 23.8999 7.38994 23.8999 7.45799 23.8999C6.63261 22.6521 6.12674 21.1772 6.0587 19.711C5.99657 18.3914 6.17703 17.0775 6.43145 15.9419C6.6977 14.7516 5.24515 13.9064 4.29257 14.6999C2.19807 16.4421 -0.100555 19.1619 0.144987 22.586C0.239654 23.9229 0.701153 25.7399 1.75432 27.2722C0.44082 29.2905 -0.103513 32.0735 0.221904 35.1095C0.878654 41.2045 4.70082 45.977 8.92532 45.977C11.6559 45.977 13.5196 44.3124 14.8006 41.9577L14.7976 41.9549ZM7.45799 23.8999C7.52899 23.8999 7.49349 23.8999 7.45799 23.8999ZM66.9708 14.6941C66.0182 13.9006 64.5657 14.7459 64.8319 15.9361C65.0863 17.0717 65.2668 18.3856 65.2047 19.7052C65.1366 21.1887 64.6189 22.6809 63.7787 23.9373C59.1844 23.6584 55.6492 27.6058 55.0191 33.4995C54.6907 36.5614 55.2203 39.6462 56.4805 41.9635C57.7585 44.3152 59.2909 45.9741 62.341 45.9741C66.5566 45.9741 70.3729 41.2074 71.0267 35.1267C71.3402 32.2316 70.8521 29.5665 69.6629 27.5741C70.506 26.0072 71.0385 23.759 71.1213 22.5831C71.3669 19.159 69.0682 16.4364 66.9708 14.6941ZM35.6213 37.3836C23.2348 37.3836 11.9547 47.6617 11.9547 58.9461C11.9547 65.1532 15.5668 69.0086 21.3858 69.0086C23.575 69.0086 25.6281 68.3589 27.7965 67.6746C30.1957 66.9156 32.6748 66.1336 35.6213 66.1336C38.5678 66.1336 41.0469 66.9156 43.4461 67.6746C45.6175 68.3589 47.6677 69.0086 49.8568 69.0086C55.6729 69.0086 59.288 65.1532 59.288 58.9461C59.288 47.6617 48.0079 37.3836 35.6213 37.3836Z" fill="white"/>
</g>
<defs>
<clipPath id="clip0_7_444">
<rect width="71" height="69" fill="white"/>
</clipPath>
</defs>
</svg>
